PathFileType	4	(X/Y/Z)	C:\Users\WrightLab\Desktop\Jo\P5V14.trc
DataRate	CameraRate	NumFrames	NumMarkers	Units	OrigDataRate	OrigDataStartFrame	OrigNumFrames
100.00	100.00	       22	19	mm	100.00	288	       575
Frame#	Time	Headset_Front			Headset_Back			Headset_Left			Headset_Right			Left_Shoulder			Right_Shoulder			Sternum			C7			Left Elbow			Right Elbow			Left Wrist			Right Wrist			Left ASIS			Right ASIS			S2			Left Knee			Right Knee			Left Ankle			Right Ankle			
		X1	Y1	Z1	X2	Y2	Z2	X3	Y3	Z3	X4	Y4	Z4	X5	Y5	Z5	X6	Y6	Z6	X7	Y7	Z7	X8	Y8	Z8	X9	Y9	Z9	X10	Y10	Z10	X11	Y11	Z11	X12	Y12	Z12	X13	Y13	Z13	X14	Y14	Z14	X15	Y15	Z15	X16	Y16	Z16	X17	Y17	Z17	X18	Y18	Z18	X19	Y19	Z19	

288	2.870	-303.82535	1656.63440	592.94891										-7.84591	1531.22900	571.55164	-301.59192	1464.61108	281.58719	-220.58902	1347.87988	485.73868	-75.23447	1539.60889	325.80228	56.26106	1238.76990	661.86627	-277.51093	1185.21069	177.54086	14.53018	1030.17041	793.89178	-362.64279	988.57251	312.67117	-126.30010	959.79742	589.88843	-281.44714	966.83270	373.90851	16.59831	990.42242	350.02545	-184.45363	563.01855	687.58301	-228.01321	512.32806	338.49918	68.57967	258.06650	533.33740	-66.50283	108.79944	368.52621	
289	2.880	-310.66986	1657.02686	599.76752										-16.26136	1531.33630	578.30896	-308.73251	1465.89758	286.98700	-228.73346	1348.02356	491.24774	-81.64060	1540.79492	331.60278	49.52880	1237.70996	667.20227	-285.78802	1186.47974	182.59474	11.68881	1026.58398	794.95557	-371.14648	989.97626	318.94333	-135.55832	959.75720	594.85840	-287.99792	967.44037	377.64481	10.53022	991.33398	358.78488	-195.86911	566.64374	694.39063	-231.63205	512.25342	340.25485	43.73708	250.59204	550.31927	-66.34158	109.23154	369.28708	
290	2.890	-318.15506	1658.57300	606.57397										-24.62943	1530.95947	585.42438	-315.89517	1466.92249	292.70023	-237.01201	1347.93274	496.51691	-89.18752	1541.14539	338.19864	42.85376	1236.64441	671.05493	-294.12213	1187.64087	187.96198	8.51513	1022.54529	796.14557	-379.61594	991.70294	324.96658	-143.84464	958.31256	599.69086	-294.11487	967.79132	381.75333	4.22002	992.33411	367.34109	-208.13878	569.64569	700.50867	-235.04480	512.77985	341.87054	19.06838	242.30046	567.84729	-66.27209	109.68620	369.58142	
291	2.900	-325.73495	1659.24280	613.75482										-32.40139	1530.00378	592.24402	-322.80920	1467.45837	297.81995	-245.06346	1348.28223	502.31216	-96.26112	1541.71533	344.77505	36.19158	1236.23035	675.31433	-301.99124	1188.04224	193.45256	4.75683	1018.97278	797.02167	-388.30298	993.24286	331.22348	-154.67821	959.16278	606.05280	-300.95166	968.47144	386.23663	-1.76006	993.45410	375.33609	-220.17570	571.51196	705.82245	-237.86540	512.68427	342.72430	-6.49162	233.45079	586.12531	-66.04471	110.12924	369.80527	
292	2.910	-332.68582	1660.18005	620.53809										-40.71513	1529.76880	599.07550	-329.80273	1468.10132	303.61072	-253.54597	1348.75305	508.11865	-103.29750	1541.50500	352.50061	28.99948	1235.05640	679.83099	-310.75931	1189.28748	198.76727	2.05791	1015.49725	798.00964	-397.07513	994.57892	337.53146	-164.40190	959.00055	611.86218	-307.73874	968.96136	390.25586	-8.34331	994.40051	384.45764	-233.30385	573.13165	711.44037	-240.97107	512.35693	343.20218	-32.84249	224.24271	603.93848	-66.54186	111.12526	370.13312	
293	2.920	-340.75177	1660.90979	627.91699										-48.74287	1529.52893	605.97900	-336.73056	1468.31152	308.98938	-261.74982	1348.40686	513.81146	-110.88045	1541.85681	358.70432	22.21718	1233.40918	683.51215	-318.68985	1189.66748	204.22145	-1.56420	1011.86682	798.90155	-405.62198	995.60016	343.45499	-173.95883	958.29449	617.74017	-314.87015	969.00433	394.60098	-14.56495	995.29291	392.35797	-247.17801	574.37787	716.05768	-244.31059	511.96796	343.31674	-59.76630	214.32988	620.30042	-66.54867	111.71522	370.45361	
294	2.930	-347.23587	1661.44690	634.72339										-56.48882	1528.87903	612.85748	-343.89203	1468.62634	314.55396	-269.93964	1347.91394	519.45178	-118.53102	1541.60315	365.31241	15.61670	1232.16772	687.82617	-327.35751	1189.96667	210.00607	-4.52442	1008.23529	800.40491	-414.38162	996.76501	350.13214	-183.08501	957.95093	623.59467	-319.23566	966.76392	398.70306	-20.97790	995.72632	400.69748	-261.40710	575.13904	719.96722	-245.84494	510.44977	343.68546	-87.19759	204.88370	638.02740	-66.70473	111.82980	370.92633	
295	2.940	-355.47498	1661.79126	642.20966										-65.33414	1528.43799	619.84338	-351.01981	1468.38660	319.85370	-278.42380	1347.55298	525.30841	-126.13923	1541.57800	372.35150	8.68429	1231.38806	691.94177	-336.06079	1189.95264	214.98077	-8.31895	1004.46820	799.99976	-423.12628	997.84412	356.36697	-191.98207	957.28906	629.49078	-327.01074	967.10870	403.76202	-27.42517	995.53564	409.37988	-275.01590	575.53607	723.97473	-248.85999	509.66360	343.42236	-115.78330	195.05565	654.81842	-66.39625	112.32978	371.19424	
296	2.950	-363.28189	1662.34827	649.71008	-166.93689	1710.15271	589.01898							-73.93472	1527.80457	627.18536	-358.21460	1467.88440	325.74164	-286.63132	1346.96997	531.13660	-133.73985	1541.59180	379.30164	1.15983	1230.45508	696.61688	-344.59091	1190.32349	221.24910	-12.41596	1001.59302	801.56799	-431.71140	998.46814	363.12842	-200.73016	956.58881	635.50037	-334.97739	966.75507	408.98221	-33.91957	995.88458	416.96075	-287.09122	575.16858	727.96008	-252.13727	509.21439	343.65411	-144.77692	184.76678	673.43695	-66.55506	112.91998	371.41513	
297	2.960	-371.10745	1662.53174	657.16241										-82.41427	1527.53259	634.13098	-365.25775	1467.45728	331.06226	-294.90585	1346.40527	537.19531	-141.45895	1541.36389	387.00323	-5.43105	1228.95630	699.68109	-353.89612	1190.60242	225.89998	-16.68448	998.22144	801.04639	-440.61441	999.24933	369.64874	-209.77119	956.18005	641.50519	-343.36035	966.71143	414.10989	-40.52132	995.81903	424.91150	-298.47638	576.58850	733.04535	-255.32767	508.16855	342.99878	-174.02145	175.40337	689.21063	-66.58676	113.56618	371.77228	
298	2.970	-378.33435	1661.87573	664.67419										-91.93063	1527.26526	641.31317	-372.51025	1467.20227	336.97977	-303.61691	1345.70032	543.23621	-149.15833	1540.87671	394.27045	-12.19297	1227.77332	705.12885	-362.81693	1190.32202	232.42871	-21.31250	996.34241	802.22595	-449.27463	999.69781	376.47083	-219.02417	955.26434	647.78552	-351.72784	966.49146	419.48145	-47.08591	995.82098	432.86047	-309.06488	577.29077	737.79425	-258.89114	507.97543	343.36270	-203.81279	167.09962	704.48431	-66.65022	114.19035	372.90103	
299	2.980	-385.67667	1661.25867	672.17657										-100.35593	1526.06995	648.54510	-379.88379	1466.62134	342.76071	-312.35162	1344.93970	548.91553	-156.89438	1540.31506	401.28815	-19.13432	1226.72668	708.87872	-371.03232	1189.87915	238.14175	-26.26910	992.82483	802.71783	-458.03278	1000.30591	382.68719	-227.94261	954.44879	653.73206	-359.92163	966.18335	424.63156	-53.32622	996.31952	439.72198	-319.08704	576.15387	742.98181	-262.57526	507.51245	343.48456	-233.44954	158.10306	719.80182	-66.96947	115.39677	373.46649	
300	2.990	-393.49265	1660.79956	679.88300	-196.60506	1705.59265	616.36816							-108.93146	1524.65710	655.81415	-387.19724	1465.97961	348.55655	-320.94022	1344.03772	555.28345	-164.94199	1539.70776	408.54196	-26.16397	1225.05640	713.53253	-380.51422	1189.78113	243.96941	-31.21686	990.12811	803.25134	-467.11639	1000.72504	389.79642	-237.94548	953.64545	660.21918	-367.80292	965.88916	429.83963	-60.46449	996.04181	446.84064	-328.55823	574.53058	747.93298	-266.56992	507.25180	343.92258	-263.24292	151.07695	733.90247	-66.23656	116.64873	373.21054	
301	3.000	-400.82346	1659.53259	687.52472	-204.75526	1704.09180	623.49329							-119.12061	1524.16626	663.92114	-394.46033	1465.28601	354.51923	-329.72858	1343.04541	561.19110	-172.74287	1539.02441	416.21805	-34.13599	1223.80188	718.51569	-389.42197	1189.59705	250.48457	-36.20351	987.49194	804.68671	-476.27057	1000.89587	396.30753	-247.03345	952.37360	666.40424	-375.16345	964.28119	433.27594	-67.14780	995.44312	454.03952	-336.91650	572.21588	753.11804	-270.84952	507.13150	344.85245	-293.55377	144.30690	746.11304	-65.84167	117.56116	373.83685	
302	3.010	-408.69031	1658.35999	695.26086	-212.85492	1703.40747	631.43988							-127.11541	1522.44104	671.18005	-402.00406	1464.50513	361.08118	-339.10028	1342.21680	567.72949	-180.86890	1538.20142	423.43298	-40.44060	1221.76807	723.15649	-398.25095	1188.72791	257.10773	-41.44735	985.02417	806.13116	-485.48529	1001.26660	403.11807	-256.50140	951.36011	672.83313	-382.51907	963.21240	437.98041	-74.14900	994.67273	461.52811	-344.72980	569.48462	758.22253	-275.26077	506.52469	345.88965	-323.15100	139.31604	759.06152	-65.70731	117.80483	374.91605	
303	3.020	-415.19608	1656.83936	702.17255	-220.18309	1701.95740	637.41150							-136.28731	1520.49023	679.09570	-409.24283	1463.69019	367.25827	-348.38394	1341.24670	574.18518	-188.65042	1537.07019	431.53192	-46.90444	1219.88379	726.25580	-406.92218	1188.22510	263.41632	-47.17556	982.59851	808.03326	-494.82880	1001.38013	410.24338	-266.06351	949.71381	679.47406	-389.68381	962.70453	442.29236	-81.15060	994.65167	468.76962	-351.45413	565.24829	762.74493	-279.98453	506.64212	347.80280	-352.12137	134.40884	770.02679	-66.04401	119.32465	375.90265	
304	3.030	-423.25656	1655.37903	709.89642										-145.48216	1518.94324	687.14758	-416.52460	1462.76318	373.20871	-356.89691	1339.71082	580.10907	-195.80226	1535.43445	440.15796	-53.02172	1218.48694	731.70013	-416.16165	1187.97168	269.41245	-53.60733	980.40375	810.60815	-504.06290	1001.48712	417.35989	-275.85846	948.23938	686.13690	-396.74835	961.62646	447.06308	-88.70893	993.80042	476.57300	-357.21313	560.16351	767.65778	-285.12082	506.39197	349.98514	-380.38089	131.78995	780.67584	-66.10609	120.45082	376.29776	
305	3.040	-430.64151	1653.94824	717.42371	-235.86945	1698.49084	652.71283							-154.73691	1516.73010	695.26160	-424.05344	1461.85425	379.58441	-365.88144	1338.14783	586.38177	-204.54086	1534.58801	447.43552	-59.52117	1216.36536	736.96423	-424.88577	1187.24329	276.00275	-59.53786	977.93542	813.24603	-513.53033	1001.63544	424.55237	-286.83597	947.70349	694.57001	-403.97089	960.96161	451.68002	-96.06435	992.20880	483.71439	-362.07852	555.10840	772.44092	-290.30521	505.67224	352.74844	-406.66418	129.76260	789.21582	-66.45688	121.86747	377.47189	
306	3.050	-438.30286	1652.47217	724.92242										-163.65614	1514.77710	703.34644	-431.40720	1460.77563	386.27994	-375.36771	1337.24976	592.71021	-212.41013	1533.17310	455.03021	-66.72971	1214.78845	742.10602	-433.47241	1186.57031	282.95923	-65.86378	975.35260	816.32788	-522.66425	1001.83289	431.74536	-296.29968	945.64276	700.59534	-411.27280	960.23016	456.87265	-103.62208	991.38306	491.03278	-367.26364	549.64142	776.65546	-295.77661	504.78088	355.81772	-432.36725	127.51557	797.64783	-67.51501	122.62730	378.71722	
307	3.060	-446.78653	1650.98303	733.22852										-173.28133	1513.10791	711.88464	-438.86420	1460.01697	393.04471	-384.32605	1335.99719	599.57446	-220.01956	1531.24792	463.51678	-73.89789	1212.70593	746.41162	-442.17035	1186.02905	289.64084	-73.18065	973.25256	819.51288	-532.29126	1001.69440	439.22421	-305.99326	943.82904	707.76440	-418.55548	959.49335	462.20819	-111.94389	989.46912	498.28076	-371.82727	543.64844	780.50067	-300.93793	504.22388	359.31876	-457.06863	125.37638	804.04749	-68.20493	124.29112	378.84067	
308	3.070	-454.53058	1649.41736	740.88654										-181.73914	1511.11365	719.80298	-446.21494	1459.00403	399.84460	-393.35516	1334.34387	606.08502	-227.79390	1529.78784	471.13461	-81.46846	1210.96252	752.14154	-451.12213	1185.11292	296.91669	-80.09923	970.81628	822.97467	-541.61078	1001.74341	446.28561	-315.74014	942.01062	714.61298	-425.90198	958.41663	468.04306	-119.61398	987.68884	505.37778	-376.63623	538.11603	783.58691	-306.47552	503.52133	363.31702	-478.21964	125.01849	808.54999	-68.90157	125.48133	379.76428	
309	3.080	-462.25317	1647.96399	748.67310										-190.94707	1508.64160	728.34839	-453.59381	1458.22314	406.66766	-402.52124	1332.85352	612.97382	-235.58925	1528.12402	479.48547	-89.18047	1208.85339	757.94366	-459.87466	1184.67004	304.02805	-88.04961	968.59937	827.41382	-551.05273	1001.73358	453.99783	-325.65012	939.90686	722.12402	-433.41269	957.84613	473.93762	-127.80386	985.52924	512.20807	-382.36624	532.67169	786.90149	-312.35559	502.72879	368.13879	-498.93549	123.25092	814.85364	-69.76536	127.08288	380.71088	
